<?xml version="1.0" encoding="UTF-8"?>
<!DOCTYPE svg PUBLIC "-//W3C//DTD SVG 1.1//EN" "http://www.w3.org/Graphics/SVG/1.1/DTD/svg11.dtd">
<!-- Creator: CorelDRAW -->
<svg xmlns="http://www.w3.org/2000/svg" xml:space="preserve" width="28.326mm" height="27.3874mm" version="1.1" style="shape-rendering:geometricPrecision; text-rendering:geometricPrecision; image-rendering:optimizeQuality; fill-rule:evenodd; clip-rule:evenodd"
viewBox="0 0 81.05 78.36"
 xmlns:xlink="http://www.w3.org/1999/xlink"
 xmlns:xodm="http://www.corel.com/coreldraw/odm/2003">
 <defs>
  <style type="text/css">
   <![CDATA[
    .fil0 {fill:#D2D3D5}
   ]]>
  </style>
 </defs>
 <g id="Camada_x0020_1">
  <metadata id="CorelCorpID_0Corel-Layer"/>
  <path class="fil0" d="M38.32 26.81l6.63 -0.27 10.47 0.14c1.44,-0.37 0.63,-0.28 1.92,-0.25 0.37,4.1 0.57,18.38 -0.1,21.94l-33.54 -0.17 -0.01 -21.52c2.72,-0.29 12.15,-0.41 14.63,0.13zm-15.89 41.76c3.93,-1.69 13,-2.35 17.57,-2.29 7.31,0.09 10.8,1 17.3,2.23l0.09 3.72c-2.07,0.2 -5.12,1.08 -7.23,1.47 -6.53,1.21 -10.53,0.55 -16.53,0.35 -1.25,-0.04 -2.71,0.32 -4.21,0.35 -1.33,0.02 -2.87,-0.13 -4.24,-0.17 -0.72,-0.81 1.19,0.84 -0.18,-0.65 -0.56,-0.61 -0.29,-0.34 -0.87,-0.5 -0.68,-0.18 -2.05,-0.11 -2.79,-0.1 1.46,-0.98 3.1,0.13 4.92,0.59 1.96,0.5 4.12,0.79 6.29,0.82 -0.41,-0.3 -0.28,-0.23 -1,-0.51 -1.54,-0.58 -6.58,-1.02 -9.14,-2.32l0.03 -2.98zm-9.05 -8.43c2.43,-2.23 21.22,-1.38 25.91,-1.32 2.38,0.03 24.24,-1.5 26.22,-0.22 -0.6,0.71 0.12,0.14 -0.65,0.48 -0.08,0.04 -0.17,0.07 -0.26,0.1l-11.54 0.89c-4.56,-0.04 -9.22,-0.32 -13.78,-0.09 -4.44,0.22 -23.09,1.43 -25.91,0.15zm1.71 -2.77c4.3,0.07 9.01,-0.45 13.61,-0.48 4.63,-0.03 9.18,0.25 13.79,0.01 4.41,-0.23 8.7,-0.62 13.04,-0.79 2.53,-0.1 10.74,-1.12 12.11,0.39 -9.04,1.85 -17.11,1.42 -26.58,1.54 -6.65,0.09 -13.76,1.12 -20.82,0.54 -3.92,-0.32 -3.65,0.38 -5.14,-1.21zm-15.09 20.99l3.46 0 -1.89 -0.35c-1.01,-0.28 -0.35,0.02 -0.93,-0.36l0 -1.76c0.35,-0.2 0.26,-0.19 0.91,-0.34 0.41,-0.09 0.95,-0.14 1.38,-0.17 6.93,-0.54 30.56,-0.18 37.42,-0.11 6.21,0.07 36.68,-0.54 39.9,0.62l-0.13 2.47 0.92 0 -0.21 -3.09c-2.31,-0.94 -6.01,-0.14 -7.94,-1.15 1.71,-2.2 4.48,-0.11 3.76,-6 -1.52,-1.68 -4.18,-2.7 -6.97,-2.79 0.1,0.09 0.23,0.17 0.34,0.24l1.8 0.86c3.72,0.38 4.51,1.5 4.25,5.02 -1.25,0.56 -2.63,1.43 -4.33,1.95l-1.98 0.19c-1.24,0.79 -4.72,0.74 -5.94,0.02 -2.44,0.16 -4.07,-1.02 -6.18,-1.56 0.03,-1.68 -0.16,-2.8 0.41,-3.97 -2.69,-0.28 -5.64,-1.16 -8.66,-1.57 -8.3,-1.13 -19.62,-0.6 -27.4,1.54l-0.12 3.8c-3.2,1.19 -6.47,1.97 -10.07,1.49 -1.56,-0.21 -3.2,-0.82 -4.48,-1.49 -1.95,-1.02 -1.73,-1.64 -1.66,-4.07 3.88,-2.8 9.34,-2.18 14.58,-2.22l49.76 0.4c-0.39,-0.35 -0.1,-0.64 -2.27,-0.92 0.01,-0.01 0.82,0.04 0.06,-1.2 -2.21,2.06 -22.52,0.4 -27.09,0.44 -2.93,0.03 -24.2,1.42 -26.91,-0.8 5.58,-1.33 22.33,-0.16 29.73,-0.48 1.8,-0.08 8.06,-0.16 9.42,-0.98 -10.29,-0.29 -19.28,0.55 -29.54,0.55 -7.71,-0 -6.95,0.37 -7.96,-1.32 3.55,0.49 9.73,-0.2 13.61,-0.28l11.85 0.2c5.43,-0.34 22.03,-2.03 26.65,-1.24 -0.44,0.93 0.63,0.24 -0.92,0.95 -0.52,0.24 -0.97,0.21 -1.57,0.25l-9.34 1.03c2.5,0.02 7.97,-0.42 9.75,0.33 -0.39,0.8 0.18,0.22 -0.83,0.59l-7.35 1.08c3.23,0.04 7.75,-1.1 10.37,-0.4l-1.37 -1.57c3.3,-2.05 1.6,-2.5 0.02,-3.86 0.87,-0.92 1.35,-0.64 1.82,-2.19 -0.69,-0.87 -1.35,-1.15 -1.76,-1.76 0.74,-0.85 1.01,-0.7 1.81,-1.76 -0.33,-1.21 0.06,-0.49 -0.66,-0.66 -0.46,-1.17 -0.49,-1.21 -1.74,-1.56 0.52,-0.69 0.7,-0.64 1.03,-1.72 -2.41,-0.69 -6.12,-0.29 -8.73,-0.3l-0.14 -21.9c1.34,-0.36 0.44,-0.27 1.53,-0.6 0.64,-0.2 1.3,-0.25 2.01,-0.44 0.22,-1.68 0.4,-17.24 0.03,-19.73 -0.37,-2.49 -3.46,-5.52 -7.05,-5.58 -10.62,-0.18 -21.69,-0.2 -32.1,0.33 -0.52,1.37 -2.65,1.72 -3.44,3.96 -0.52,1.48 -0.38,19.53 -0.05,20.96 1.87,0.71 2.27,0.12 3.81,1.44l0 21.56 -6.71 0.02 0 1.17c-1.22,0.41 -1.45,0.99 -1.51,0.88 -0.03,-0.06 -0.13,0.12 -0.2,0.17l0.32 0.67c-1.39,0.26 -1.56,0.32 -2,1.67 1.1,1.6 1.46,0.81 2.42,1.89 -1.6,0.63 -2.03,0.54 -2.32,2.21l2.22 1.2c-1.05,1.37 -1.4,0.35 -2.21,2.26l2.41 1.62c-0.87,0.68 -1.26,0.71 -1.9,1.36 0.26,0.85 0.3,1 0.83,1.21 -2.9,0.36 -3.86,0.33 -6.49,1.32 -3.42,1.3 -2.67,1.32 -2.62,5.19 0.61,0.34 0.41,0.33 0.91,0.7 1.91,1.41 1.68,0.53 2.06,2.37l-7.82 0.61 -0.1 3.46zm67.54 -26.43c-0.21,1.06 -0.02,0.42 -0.28,0.9 -7.96,1.21 -38.16,0.8 -42.85,1.79 5.82,0.07 10.47,-0.18 16.22,0.4 0.02,0 20.09,-2.07 24.85,-0.66 -0.54,1.21 -2.54,0.83 -5.92,1.29 -3.05,0.42 -15.37,0.03 -19.66,0.21 -5.12,0.22 -22.78,1.56 -26.64,0.57 1.27,-2.09 4.83,-0.72 7.1,-1.81l-4.71 -0.06c-0.4,-0.87 0.01,-0.44 -0.64,-1.04 -1.13,-1.06 -0.63,-0.34 -0.78,-0.22l27.19 -0.8c1.9,-0.03 6.96,0.22 8.6,-0.71l-36.65 0.82c0.05,-0.08 0.14,-0.17 0.18,-0.22 0.04,-0.05 0.13,-0.16 0.18,-0.21l0.87 -0.9c2.53,0.26 8.69,-0.79 12.37,-0.7 4.35,0.11 8.49,0.05 12.87,0.31 3.64,0.22 23.07,-1.66 25.07,-0.4 -0.99,1.04 -9.16,0.91 -10.59,1.36 4.32,0.06 9.09,0.38 13.22,0.1zm-16.96 -29.04c3.36,-0.03 6.9,0.19 10.2,0.04l-0.12 1.78c-2.87,0.23 -7.3,-0.14 -10.44,-0.15 -6.62,-0.03 -22,-0.29 -27.92,0.06 -2.29,0.14 -2.64,0.68 -2.72,-1.6 7.05,-0.16 13.77,0.21 20.76,0.28 3.44,0.04 6.79,-0.37 10.24,-0.4zm6.16 -0.54l-9.07 -0.02 -4.36 -0.39 0.38 -16.65c5.61,-0.1 11.61,-0.81 17.15,-0.04l0.07 16.98 -4.17 0.12zm1.09 -19.91c0.83,0.73 1.25,1.34 2.1,1.9l-22.07 0.41c1.62,1.27 0.56,-0.23 1.03,1.04l0.08 16.44 -19.49 0.05c0.02,-3.07 -0.51,-15.53 0.38,-17.35 3.76,-0.7 13.86,0.64 14.48,-0.68 0.08,-0.18 0.26,-0.13 0.34,-0.24l-14.12 -0.14c2.26,-2.9 4.69,-2.87 7.06,-2.97l21.54 -0.03c4.99,0.01 6.04,-0.53 8.66,1.56z"/>
 </g>
</svg>
